<svg data-v-de4de066="" width="40" height="40" viewBox="0 0 40 40" fill="none" xmlns="http://www.w3.org/2000/svg" class="logo" data-darkreader-inline-fill="" style="--darkreader-inline-fill:none;">
  <path d="M18.86 15.868a1.99 1.99 0 01-1.985 1.984 1.868 1.868 0 01-1.39-.595l-3.375-3.372h4.798c1.084.018 1.952.9 1.952 1.983zm20.813 3.868a19.815 19.815 0 01-9.845 17.274 19.853 19.853 0 01-19.896.05A19.815 19.815 0 010 19.835c0-2.96.655-5.884 1.92-8.562L0 7.934h15.882c7.676 0 13.897 6.217 13.897 13.885v3.967h-4.996a14.63 14.63 0 00-7.213 1.917l-7.71 4.463c2.82 2.3 6.353 3.55 9.993 3.537a15.882 15.882 0 0014.9-10.342 15.858 15.858 0 00-4.528-17.554 15.894 15.894 0 00-18.049-1.856H5.692A19.833 19.833 0 0127.31 1.457a19.802 19.802 0 0112.363 18.279zM7.048 29.191l9.364-5.389a15.023 15.023 0 017.445-1.983h1.952a9.9 9.9 0 00-2.904-7.017 9.918 9.918 0 00-7.023-2.9H6.088a15.832 15.832 0 00.96 17.289z" fill="#000000cf" data-darkreader-inline-fill="" style="--darkreader-inline-fill:#000000cf;"></path>
</svg>
